<svg xmlns="http://www.w3.org/2000/svg" width="760" height="520" font-family="Helvetica,Arial,sans-serif" font-size="13">
<rect width="760" height="520" fill="white"/>
<text x="334.0" y="26" text-anchor="middle" font-size="16" font-weight="bold">SC-LDPC over PAM4+RRC, R=0.9 (BG1, windowed)</text>
<line x1="78" y1="372.7" x2="590" y2="372.7" stroke="#e0e0e0"/>
<text x="70" y="376.7" text-anchor="end">1e-4</text>
<line x1="78" y1="267.8" x2="590" y2="267.8" stroke="#e0e0e0"/>
<text x="70" y="271.8" text-anchor="end">1e-3</text>
<line x1="78" y1="162.8" x2="590" y2="162.8" stroke="#e0e0e0"/>
<text x="70" y="166.8" text-anchor="end">1e-2</text>
<line x1="78" y1="57.9" x2="590" y2="57.9" stroke="#e0e0e0"/>
<text x="70" y="61.9" text-anchor="end">1e-1</text>
<line x1="78.0" y1="48" x2="78.0" y2="460" stroke="#eee"/>
<text x="78.0" y="480.0" text-anchor="middle">6.0</text>
<line x1="136.2" y1="48" x2="136.2" y2="460" stroke="#eee"/>
<text x="136.2" y="480.0" text-anchor="middle">6.5</text>
<line x1="194.4" y1="48" x2="194.4" y2="460" stroke="#eee"/>
<text x="194.4" y="480.0" text-anchor="middle">7.0</text>
<line x1="252.5" y1="48" x2="252.5" y2="460" stroke="#eee"/>
<text x="252.5" y="480.0" text-anchor="middle">7.5</text>
<line x1="310.7" y1="48" x2="310.7" y2="460" stroke="#eee"/>
<text x="310.7" y="480.0" text-anchor="middle">8.0</text>
<line x1="368.9" y1="48" x2="368.9" y2="460" stroke="#eee"/>
<text x="368.9" y="480.0" text-anchor="middle">8.5</text>
<line x1="427.1" y1="48" x2="427.1" y2="460" stroke="#eee"/>
<text x="427.1" y="480.0" text-anchor="middle">9.0</text>
<line x1="485.3" y1="48" x2="485.3" y2="460" stroke="#eee"/>
<text x="485.3" y="480.0" text-anchor="middle">9.5</text>
<line x1="543.5" y1="48" x2="543.5" y2="460" stroke="#eee"/>
<text x="543.5" y="480.0" text-anchor="middle">10.0</text>
<rect x="78" y="48" width="512" height="412" fill="none" stroke="#333"/>
<text x="334.0" y="504" text-anchor="middle">Eb/N0 [dB]</text>
<text x="20" y="254.0" text-anchor="middle" transform="rotate(-90 20 254.0)">BER</text>
<path d="M78.0,72.3 L136.2,78.3 L194.4,88.6 L252.5,108.1 L310.7,138.5 L368.9,190.8 L427.1,236.6 L508.5,366.8" fill="none" stroke="#1f77b4" stroke-width="2.2"/>
<circle cx="78.0" cy="72.3" r="3.3" fill="#1f77b4"/>
<circle cx="136.2" cy="78.3" r="3.3" fill="#1f77b4"/>
<circle cx="194.4" cy="88.6" r="3.3" fill="#1f77b4"/>
<circle cx="252.5" cy="108.1" r="3.3" fill="#1f77b4"/>
<circle cx="310.7" cy="138.5" r="3.3" fill="#1f77b4"/>
<circle cx="368.9" cy="190.8" r="3.3" fill="#1f77b4"/>
<circle cx="427.1" cy="236.6" r="3.3" fill="#1f77b4"/>
<circle cx="508.5" cy="366.8" r="3.3" fill="#1f77b4"/>
<line x1="604" y1="66" x2="624" y2="66" stroke="#1f77b4" stroke-width="2.2"/>
<text x="628" y="70">plain 5G LDPC (uncoupled, full-BP)</text>
<path d="M78.0,67.3 L136.2,71.8 L194.4,80.5 L252.5,91.7 L310.7,141.4 L368.9,307.2" fill="none" stroke="#d62728" stroke-width="2.2"/>
<circle cx="78.0" cy="67.3" r="3.3" fill="#d62728"/>
<circle cx="136.2" cy="71.8" r="3.3" fill="#d62728"/>
<circle cx="194.4" cy="80.5" r="3.3" fill="#d62728"/>
<circle cx="252.5" cy="91.7" r="3.3" fill="#d62728"/>
<circle cx="310.7" cy="141.4" r="3.3" fill="#d62728"/>
<circle cx="368.9" cy="307.2" r="3.3" fill="#d62728"/>
<line x1="604" y1="88" x2="624" y2="88" stroke="#d62728" stroke-width="2.2"/>
<text x="628" y="92">L=30</text>
<path d="M78.0,66.7 L136.2,71.1 L194.4,77.6 L252.5,86.0 L310.7,111.3 L368.9,239.9" fill="none" stroke="#2ca02c" stroke-width="2.2"/>
<circle cx="78.0" cy="66.7" r="3.3" fill="#2ca02c"/>
<circle cx="136.2" cy="71.1" r="3.3" fill="#2ca02c"/>
<circle cx="194.4" cy="77.6" r="3.3" fill="#2ca02c"/>
<circle cx="252.5" cy="86.0" r="3.3" fill="#2ca02c"/>
<circle cx="310.7" cy="111.3" r="3.3" fill="#2ca02c"/>
<circle cx="368.9" cy="239.9" r="3.3" fill="#2ca02c"/>
<line x1="604" y1="110" x2="624" y2="110" stroke="#2ca02c" stroke-width="2.2"/>
<text x="628" y="114">L=100</text>
<path d="M78.0,66.5 L136.2,71.3 L194.4,76.5 L252.5,85.9 L310.7,114.0 L368.9,287.4 L427.1,386.9" fill="none" stroke="#9467bd" stroke-width="2.2"/>
<circle cx="78.0" cy="66.5" r="3.3" fill="#9467bd"/>
<circle cx="136.2" cy="71.3" r="3.3" fill="#9467bd"/>
<circle cx="194.4" cy="76.5" r="3.3" fill="#9467bd"/>
<circle cx="252.5" cy="85.9" r="3.3" fill="#9467bd"/>
<circle cx="310.7" cy="114.0" r="3.3" fill="#9467bd"/>
<circle cx="368.9" cy="287.4" r="3.3" fill="#9467bd"/>
<circle cx="427.1" cy="386.9" r="3.3" fill="#9467bd"/>
<line x1="604" y1="132" x2="624" y2="132" stroke="#9467bd" stroke-width="2.2"/>
<text x="628" y="136">L=200</text>
<path d="M78.0,66.5 L136.2,71.0 L194.4,77.1 L252.5,85.4 L310.7,107.5 L368.9,273.8 L427.1,436.7" fill="none" stroke="#ff7f0e" stroke-width="2.2"/>
<circle cx="78.0" cy="66.5" r="3.3" fill="#ff7f0e"/>
<circle cx="136.2" cy="71.0" r="3.3" fill="#ff7f0e"/>
<circle cx="194.4" cy="77.1" r="3.3" fill="#ff7f0e"/>
<circle cx="252.5" cy="85.4" r="3.3" fill="#ff7f0e"/>
<circle cx="310.7" cy="107.5" r="3.3" fill="#ff7f0e"/>
<circle cx="368.9" cy="273.8" r="3.3" fill="#ff7f0e"/>
<circle cx="427.1" cy="436.7" r="3.3" fill="#ff7f0e"/>
<line x1="604" y1="154" x2="624" y2="154" stroke="#ff7f0e" stroke-width="2.2"/>
<text x="628" y="158">L=300</text>
</svg>