<svg xmlns="http://www.w3.org/2000/svg" width="760" height="520" font-family="Helvetica,Arial,sans-serif" font-size="13">
<rect width="760" height="520" fill="white"/>
<text x="334.0" y="26" text-anchor="middle" font-size="16" font-weight="bold">SC-LDPC over QAM/AWGN  R=0.833  Z=64  (w=3,L=50)</text>
<line x1="78" y1="444.1" x2="590" y2="444.1" stroke="#e0e0e0"/>
<text x="70" y="448.1" text-anchor="end">1e-5</text>
<line x1="78" y1="349.1" x2="590" y2="349.1" stroke="#e0e0e0"/>
<text x="70" y="353.1" text-anchor="end">1e-4</text>
<line x1="78" y1="254.2" x2="590" y2="254.2" stroke="#e0e0e0"/>
<text x="70" y="258.2" text-anchor="end">1e-3</text>
<line x1="78" y1="159.2" x2="590" y2="159.2" stroke="#e0e0e0"/>
<text x="70" y="163.2" text-anchor="end">1e-2</text>
<line x1="78" y1="64.3" x2="590" y2="64.3" stroke="#e0e0e0"/>
<text x="70" y="68.3" text-anchor="end">1e-1</text>
<line x1="78.0" y1="48" x2="78.0" y2="460" stroke="#eee"/>
<text x="78.0" y="480.0" text-anchor="middle">2.1</text>
<line x1="145.5" y1="48" x2="145.5" y2="460" stroke="#eee"/>
<text x="145.5" y="480.0" text-anchor="middle">4.1</text>
<line x1="212.9" y1="48" x2="212.9" y2="460" stroke="#eee"/>
<text x="212.9" y="480.0" text-anchor="middle">6.1</text>
<line x1="280.4" y1="48" x2="280.4" y2="460" stroke="#eee"/>
<text x="280.4" y="480.0" text-anchor="middle">8.1</text>
<line x1="347.8" y1="48" x2="347.8" y2="460" stroke="#eee"/>
<text x="347.8" y="480.0" text-anchor="middle">10.1</text>
<line x1="415.3" y1="48" x2="415.3" y2="460" stroke="#eee"/>
<text x="415.3" y="480.0" text-anchor="middle">12.1</text>
<line x1="482.7" y1="48" x2="482.7" y2="460" stroke="#eee"/>
<text x="482.7" y="480.0" text-anchor="middle">14.1</text>
<line x1="550.2" y1="48" x2="550.2" y2="460" stroke="#eee"/>
<text x="550.2" y="480.0" text-anchor="middle">16.1</text>
<rect x="78" y="48" width="512" height="412" fill="none" stroke="#333"/>
<text x="334.0" y="504" text-anchor="middle">info Eb/N0 [dB]</text>
<text x="20" y="254.0" text-anchor="middle" transform="rotate(-90 20 254.0)">info BER</text>
<path d="M78.0,64.7 L103.3,75.8 L128.6,186.2 L152.2,391.4" fill="none" stroke="#1f77b4" stroke-width="2.2"/>
<circle cx="78.0" cy="64.7" r="3.3" fill="#1f77b4"/>
<circle cx="103.3" cy="75.8" r="3.3" fill="#1f77b4"/>
<circle cx="128.6" cy="186.2" r="3.3" fill="#1f77b4"/>
<circle cx="152.2" cy="391.4" r="3.3" fill="#1f77b4"/>
<line x1="604" y1="66" x2="624" y2="66" stroke="#1f77b4" stroke-width="2.2"/>
<text x="628" y="70">QPSK</text>
<path d="M192.7,67.1 L218.0,77.4 L243.3,151.8" fill="none" stroke="#2ca02c" stroke-width="2.2"/>
<circle cx="192.7" cy="67.1" r="3.3" fill="#2ca02c"/>
<circle cx="218.0" cy="77.4" r="3.3" fill="#2ca02c"/>
<circle cx="243.3" cy="151.8" r="3.3" fill="#2ca02c"/>
<line x1="604" y1="88" x2="624" y2="88" stroke="#2ca02c" stroke-width="2.2"/>
<text x="628" y="92">16-QAM</text>
<path d="M323.9,68.4 L349.2,79.2 L374.5,197.0 L398.1,438.9" fill="none" stroke="#ff7f0e" stroke-width="2.2"/>
<circle cx="323.9" cy="68.4" r="3.3" fill="#ff7f0e"/>
<circle cx="349.2" cy="79.2" r="3.3" fill="#ff7f0e"/>
<circle cx="374.5" cy="197.0" r="3.3" fill="#ff7f0e"/>
<circle cx="398.1" cy="438.9" r="3.3" fill="#ff7f0e"/>
<line x1="604" y1="110" x2="624" y2="110" stroke="#ff7f0e" stroke-width="2.2"/>
<text x="628" y="114">64-QAM</text>
<path d="M465.2,69.4 L490.5,82.4 L515.8,184.5 L539.4,417.9" fill="none" stroke="#d62728" stroke-width="2.2"/>
<circle cx="465.2" cy="69.4" r="3.3" fill="#d62728"/>
<circle cx="490.5" cy="82.4" r="3.3" fill="#d62728"/>
<circle cx="515.8" cy="184.5" r="3.3" fill="#d62728"/>
<circle cx="539.4" cy="417.9" r="3.3" fill="#d62728"/>
<line x1="604" y1="132" x2="624" y2="132" stroke="#d62728" stroke-width="2.2"/>
<text x="628" y="136">256-QAM</text>
</svg>