<svg xmlns="http://www.w3.org/2000/svg" width="760" height="520" font-family="Helvetica,Arial,sans-serif" font-size="13">
<rect width="760" height="520" fill="white"/>
<text x="334.0" y="26" text-anchor="middle" font-size="16" font-weight="bold">Learning curves at R=0.48 (sample efficiency)</text>
<line x1="78" y1="282.4" x2="590" y2="282.4" stroke="#e0e0e0"/>
<text x="70" y="286.4" text-anchor="end">1e-1</text>
<line x1="78.0" y1="48" x2="78.0" y2="460" stroke="#eee"/>
<text x="78.0" y="480.0" text-anchor="middle">64.0</text>
<line x1="142.0" y1="48" x2="142.0" y2="460" stroke="#eee"/>
<text x="142.0" y="480.0" text-anchor="middle">200.0</text>
<line x1="206.0" y1="48" x2="206.0" y2="460" stroke="#eee"/>
<text x="206.0" y="480.0" text-anchor="middle">336.0</text>
<line x1="270.0" y1="48" x2="270.0" y2="460" stroke="#eee"/>
<text x="270.0" y="480.0" text-anchor="middle">472.0</text>
<line x1="334.0" y1="48" x2="334.0" y2="460" stroke="#eee"/>
<text x="334.0" y="480.0" text-anchor="middle">608.0</text>
<line x1="398.0" y1="48" x2="398.0" y2="460" stroke="#eee"/>
<text x="398.0" y="480.0" text-anchor="middle">744.0</text>
<line x1="462.0" y1="48" x2="462.0" y2="460" stroke="#eee"/>
<text x="462.0" y="480.0" text-anchor="middle">880.0</text>
<line x1="526.0" y1="48" x2="526.0" y2="460" stroke="#eee"/>
<text x="526.0" y="480.0" text-anchor="middle">1016.0</text>
<line x1="590.0" y1="48" x2="590.0" y2="460" stroke="#eee"/>
<text x="590.0" y="480.0" text-anchor="middle">1152.0</text>
<rect x="78" y="48" width="512" height="412" fill="none" stroke="#333"/>
<text x="334.0" y="504" text-anchor="middle"># construction evaluations</text>
<text x="20" y="254.0" text-anchor="middle" transform="rotate(-90 20 254.0)">best validation FER</text>
<path d="M78.0,202.8 L108.1,202.8 L138.2,202.8 L168.4,215.8 L198.5,215.8 L228.6,215.8 L258.7,215.8 L288.8,230.0 L318.9,230.0 L349.1,230.0 L379.2,230.0 L409.3,262.9 L439.4,262.9 L469.5,282.4 L499.6,282.4 L529.8,282.4 L559.9,282.4 L590.0,282.4" fill="none" stroke="#d62728" stroke-width="2.2"/>
<circle cx="78.0" cy="202.8" r="3.3" fill="#d62728"/>
<circle cx="108.1" cy="202.8" r="3.3" fill="#d62728"/>
<circle cx="138.2" cy="202.8" r="3.3" fill="#d62728"/>
<circle cx="168.4" cy="215.8" r="3.3" fill="#d62728"/>
<circle cx="198.5" cy="215.8" r="3.3" fill="#d62728"/>
<circle cx="228.6" cy="215.8" r="3.3" fill="#d62728"/>
<circle cx="258.7" cy="215.8" r="3.3" fill="#d62728"/>
<circle cx="288.8" cy="230.0" r="3.3" fill="#d62728"/>
<circle cx="318.9" cy="230.0" r="3.3" fill="#d62728"/>
<circle cx="349.1" cy="230.0" r="3.3" fill="#d62728"/>
<circle cx="379.2" cy="230.0" r="3.3" fill="#d62728"/>
<circle cx="409.3" cy="262.9" r="3.3" fill="#d62728"/>
<circle cx="439.4" cy="262.9" r="3.3" fill="#d62728"/>
<circle cx="469.5" cy="282.4" r="3.3" fill="#d62728"/>
<circle cx="499.6" cy="282.4" r="3.3" fill="#d62728"/>
<circle cx="529.8" cy="282.4" r="3.3" fill="#d62728"/>
<circle cx="559.9" cy="282.4" r="3.3" fill="#d62728"/>
<circle cx="590.0" cy="282.4" r="3.3" fill="#d62728"/>
<line x1="604" y1="66" x2="624" y2="66" stroke="#d62728" stroke-width="2.2"/>
<text x="628" y="70">RL feature [ours]</text>
<path d="M78.0,174.4 L108.1,254.0 L138.2,254.0 L168.4,254.0 L198.5,254.0 L228.6,282.4 L258.7,282.4 L288.8,282.4 L318.9,282.4 L349.1,282.4 L379.2,282.4 L409.3,304.7 L439.4,304.7 L469.5,304.7 L499.6,304.7 L529.8,304.7 L559.9,317.2 L590.0,317.2" fill="none" stroke="#ff7f0e" stroke-width="2.2"/>
<circle cx="78.0" cy="174.4" r="3.3" fill="#ff7f0e"/>
<circle cx="108.1" cy="254.0" r="3.3" fill="#ff7f0e"/>
<circle cx="138.2" cy="254.0" r="3.3" fill="#ff7f0e"/>
<circle cx="168.4" cy="254.0" r="3.3" fill="#ff7f0e"/>
<circle cx="198.5" cy="254.0" r="3.3" fill="#ff7f0e"/>
<circle cx="228.6" cy="282.4" r="3.3" fill="#ff7f0e"/>
<circle cx="258.7" cy="282.4" r="3.3" fill="#ff7f0e"/>
<circle cx="288.8" cy="282.4" r="3.3" fill="#ff7f0e"/>
<circle cx="318.9" cy="282.4" r="3.3" fill="#ff7f0e"/>
<circle cx="349.1" cy="282.4" r="3.3" fill="#ff7f0e"/>
<circle cx="379.2" cy="282.4" r="3.3" fill="#ff7f0e"/>
<circle cx="409.3" cy="304.7" r="3.3" fill="#ff7f0e"/>
<circle cx="439.4" cy="304.7" r="3.3" fill="#ff7f0e"/>
<circle cx="469.5" cy="304.7" r="3.3" fill="#ff7f0e"/>
<circle cx="499.6" cy="304.7" r="3.3" fill="#ff7f0e"/>
<circle cx="529.8" cy="304.7" r="3.3" fill="#ff7f0e"/>
<circle cx="559.9" cy="317.2" r="3.3" fill="#ff7f0e"/>
<circle cx="590.0" cy="317.2" r="3.3" fill="#ff7f0e"/>
<line x1="604" y1="88" x2="624" y2="88" stroke="#ff7f0e" stroke-width="2.2"/>
<text x="628" y="92">RL per-edge [ours]</text>
<path d="M78.0,237.6 L108.1,237.6 L138.2,237.6 L168.4,237.6 L198.5,237.6 L228.6,237.6 L258.7,317.2 L288.8,317.2 L318.9,317.2 L349.1,317.2 L379.2,330.8 L409.3,330.8 L439.4,330.8 L469.5,330.8 L499.6,330.8 L529.8,330.8 L559.9,380.4 L590.0,380.4" fill="none" stroke="#9467bd" stroke-width="2.2"/>
<circle cx="78.0" cy="237.6" r="3.3" fill="#9467bd"/>
<circle cx="108.1" cy="237.6" r="3.3" fill="#9467bd"/>
<circle cx="138.2" cy="237.6" r="3.3" fill="#9467bd"/>
<circle cx="168.4" cy="237.6" r="3.3" fill="#9467bd"/>
<circle cx="198.5" cy="237.6" r="3.3" fill="#9467bd"/>
<circle cx="228.6" cy="237.6" r="3.3" fill="#9467bd"/>
<circle cx="258.7" cy="317.2" r="3.3" fill="#9467bd"/>
<circle cx="288.8" cy="317.2" r="3.3" fill="#9467bd"/>
<circle cx="318.9" cy="317.2" r="3.3" fill="#9467bd"/>
<circle cx="349.1" cy="317.2" r="3.3" fill="#9467bd"/>
<circle cx="379.2" cy="330.8" r="3.3" fill="#9467bd"/>
<circle cx="409.3" cy="330.8" r="3.3" fill="#9467bd"/>
<circle cx="439.4" cy="330.8" r="3.3" fill="#9467bd"/>
<circle cx="469.5" cy="330.8" r="3.3" fill="#9467bd"/>
<circle cx="499.6" cy="330.8" r="3.3" fill="#9467bd"/>
<circle cx="529.8" cy="330.8" r="3.3" fill="#9467bd"/>
<circle cx="559.9" cy="380.4" r="3.3" fill="#9467bd"/>
<circle cx="590.0" cy="380.4" r="3.3" fill="#9467bd"/>
<line x1="604" y1="110" x2="624" y2="110" stroke="#9467bd" stroke-width="2.2"/>
<text x="628" y="114">CEM</text>
<path d="M78.0,111.2 L108.1,262.9 L138.2,262.9 L168.4,262.9 L198.5,262.9 L228.6,262.9 L258.7,362.0 L288.8,362.0 L318.9,362.0 L349.1,362.0 L379.2,362.0 L409.3,362.0 L439.4,362.0 L469.5,362.0 L499.6,362.0 L529.8,362.0 L559.9,362.0 L590.0,362.0" fill="none" stroke="#1f77b4" stroke-width="2.2"/>
<circle cx="78.0" cy="111.2" r="3.3" fill="#1f77b4"/>
<circle cx="108.1" cy="262.9" r="3.3" fill="#1f77b4"/>
<circle cx="138.2" cy="262.9" r="3.3" fill="#1f77b4"/>
<circle cx="168.4" cy="262.9" r="3.3" fill="#1f77b4"/>
<circle cx="198.5" cy="262.9" r="3.3" fill="#1f77b4"/>
<circle cx="228.6" cy="262.9" r="3.3" fill="#1f77b4"/>
<circle cx="258.7" cy="362.0" r="3.3" fill="#1f77b4"/>
<circle cx="288.8" cy="362.0" r="3.3" fill="#1f77b4"/>
<circle cx="318.9" cy="362.0" r="3.3" fill="#1f77b4"/>
<circle cx="349.1" cy="362.0" r="3.3" fill="#1f77b4"/>
<circle cx="379.2" cy="362.0" r="3.3" fill="#1f77b4"/>
<circle cx="409.3" cy="362.0" r="3.3" fill="#1f77b4"/>
<circle cx="439.4" cy="362.0" r="3.3" fill="#1f77b4"/>
<circle cx="469.5" cy="362.0" r="3.3" fill="#1f77b4"/>
<circle cx="499.6" cy="362.0" r="3.3" fill="#1f77b4"/>
<circle cx="529.8" cy="362.0" r="3.3" fill="#1f77b4"/>
<circle cx="559.9" cy="362.0" r="3.3" fill="#1f77b4"/>
<circle cx="590.0" cy="362.0" r="3.3" fill="#1f77b4"/>
<line x1="604" y1="132" x2="624" y2="132" stroke="#1f77b4" stroke-width="2.2"/>
<text x="628" y="136">random search</text>
</svg>