<svg xmlns="http://www.w3.org/2000/svg" width="760" height="520" font-family="Helvetica,Arial,sans-serif" font-size="13">
<rect width="760" height="520" fill="white"/>
<text x="334.0" y="26" text-anchor="middle" font-size="16" font-weight="bold">PAS2 matched-SE=5.2025 BER: 256-QAM w=3 Z=32 L=50</text>
<line x1="78" y1="400.1" x2="590" y2="400.1" stroke="#e0e0e0"/>
<text x="70" y="404.1" text-anchor="end">1e-5</text>
<line x1="78" y1="319.4" x2="590" y2="319.4" stroke="#e0e0e0"/>
<text x="70" y="323.4" text-anchor="end">1e-4</text>
<line x1="78" y1="238.6" x2="590" y2="238.6" stroke="#e0e0e0"/>
<text x="70" y="242.6" text-anchor="end">1e-3</text>
<line x1="78" y1="157.8" x2="590" y2="157.8" stroke="#e0e0e0"/>
<text x="70" y="161.8" text-anchor="end">1e-2</text>
<line x1="78" y1="77.1" x2="590" y2="77.1" stroke="#e0e0e0"/>
<text x="70" y="81.1" text-anchor="end">1e-1</text>
<line x1="78.0" y1="48" x2="78.0" y2="460" stroke="#eee"/>
<text x="78.0" y="480.0" text-anchor="middle">11.0</text>
<line x1="125.3" y1="48" x2="125.3" y2="460" stroke="#eee"/>
<text x="125.3" y="480.0" text-anchor="middle">11.5</text>
<line x1="172.6" y1="48" x2="172.6" y2="460" stroke="#eee"/>
<text x="172.6" y="480.0" text-anchor="middle">12.0</text>
<line x1="220.0" y1="48" x2="220.0" y2="460" stroke="#eee"/>
<text x="220.0" y="480.0" text-anchor="middle">12.5</text>
<line x1="267.3" y1="48" x2="267.3" y2="460" stroke="#eee"/>
<text x="267.3" y="480.0" text-anchor="middle">13.0</text>
<line x1="314.6" y1="48" x2="314.6" y2="460" stroke="#eee"/>
<text x="314.6" y="480.0" text-anchor="middle">13.5</text>
<line x1="361.9" y1="48" x2="361.9" y2="460" stroke="#eee"/>
<text x="361.9" y="480.0" text-anchor="middle">14.0</text>
<line x1="409.2" y1="48" x2="409.2" y2="460" stroke="#eee"/>
<text x="409.2" y="480.0" text-anchor="middle">14.5</text>
<line x1="456.6" y1="48" x2="456.6" y2="460" stroke="#eee"/>
<text x="456.6" y="480.0" text-anchor="middle">15.0</text>
<line x1="503.9" y1="48" x2="503.9" y2="460" stroke="#eee"/>
<text x="503.9" y="480.0" text-anchor="middle">15.5</text>
<line x1="551.2" y1="48" x2="551.2" y2="460" stroke="#eee"/>
<text x="551.2" y="480.0" text-anchor="middle">16.0</text>
<rect x="78" y="48" width="512" height="412" fill="none" stroke="#333"/>
<text x="334.0" y="504" text-anchor="middle">info Eb/N0 [dB]</text>
<text x="20" y="254.0" text-anchor="middle" transform="rotate(-90 20 254.0)">info BER</text>
<path d="M78.0,79.8 L150.9,95.9 L224.7,173.1 L370.4,442.1" fill="none" stroke="#7f7f7f" stroke-width="2.2"/>
<circle cx="78.0" cy="79.8" r="3.3" fill="#7f7f7f"/>
<circle cx="150.9" cy="95.9" r="3.3" fill="#7f7f7f"/>
<circle cx="224.7" cy="173.1" r="3.3" fill="#7f7f7f"/>
<circle cx="370.4" cy="442.1" r="3.3" fill="#7f7f7f"/>
<line x1="604" y1="66" x2="624" y2="66" stroke="#7f7f7f" stroke-width="2.2"/>
<text x="628" y="70">uniform + round-robin</text>
<path d="M78.0,62.2 L150.9,83.4" fill="none" stroke="#000000" stroke-width="2.2"/>
<circle cx="78.0" cy="62.2" r="3.3" fill="#000000"/>
<circle cx="150.9" cy="83.4" r="3.3" fill="#000000"/>
<line x1="604" y1="88" x2="624" y2="88" stroke="#000000" stroke-width="2.2"/>
<text x="628" y="92">uniform + CEM (strong)</text>
<path d="M78.0,86.3 L150.9,99.6 L224.7,93.0 L297.6,109.0 L370.4,105.6 L443.3,325.1" fill="none" stroke="#2ca02c" stroke-width="2.2"/>
<circle cx="78.0" cy="86.3" r="3.3" fill="#2ca02c"/>
<circle cx="150.9" cy="99.6" r="3.3" fill="#2ca02c"/>
<circle cx="224.7" cy="93.0" r="3.3" fill="#2ca02c"/>
<circle cx="297.6" cy="109.0" r="3.3" fill="#2ca02c"/>
<circle cx="370.4" cy="105.6" r="3.3" fill="#2ca02c"/>
<circle cx="443.3" cy="325.1" r="3.3" fill="#2ca02c"/>
<line x1="604" y1="110" x2="624" y2="110" stroke="#2ca02c" stroke-width="2.2"/>
<text x="628" y="114">shaped(nu*) + round-robin</text>
<path d="M78.0,95.3 L150.9,137.0 L224.7,98.8 L297.6,86.7 L370.4,105.3 L443.3,252.0" fill="none" stroke="#17becf" stroke-width="2.2"/>
<circle cx="78.0" cy="95.3" r="3.3" fill="#17becf"/>
<circle cx="150.9" cy="137.0" r="3.3" fill="#17becf"/>
<circle cx="224.7" cy="98.8" r="3.3" fill="#17becf"/>
<circle cx="297.6" cy="86.7" r="3.3" fill="#17becf"/>
<circle cx="370.4" cy="105.3" r="3.3" fill="#17becf"/>
<circle cx="443.3" cy="252.0" r="3.3" fill="#17becf"/>
<line x1="604" y1="132" x2="624" y2="132" stroke="#17becf" stroke-width="2.2"/>
<text x="628" y="136">shaped + CEM constr</text>
<path d="M78.0,86.4 L150.9,112.9 L224.7,116.1 L297.6,122.0 L370.4,116.1 L443.3,217.2" fill="none" stroke="#ff7f0e" stroke-width="2.2"/>
<circle cx="78.0" cy="86.4" r="3.3" fill="#ff7f0e"/>
<circle cx="150.9" cy="112.9" r="3.3" fill="#ff7f0e"/>
<circle cx="224.7" cy="116.1" r="3.3" fill="#ff7f0e"/>
<circle cx="297.6" cy="122.0" r="3.3" fill="#ff7f0e"/>
<circle cx="370.4" cy="116.1" r="3.3" fill="#ff7f0e"/>
<circle cx="443.3" cy="217.2" r="3.3" fill="#ff7f0e"/>
<line x1="604" y1="154" x2="624" y2="154" stroke="#ff7f0e" stroke-width="2.2"/>
<text x="628" y="158">shaped + RL constr</text>
<path d="M78.0,66.6 L150.9,88.6 L224.7,93.0 L297.6,134.3" fill="none" stroke="#9467bd" stroke-width="2.2"/>
<circle cx="78.0" cy="66.6" r="3.3" fill="#9467bd"/>
<circle cx="150.9" cy="88.6" r="3.3" fill="#9467bd"/>
<circle cx="224.7" cy="93.0" r="3.3" fill="#9467bd"/>
<circle cx="297.6" cy="134.3" r="3.3" fill="#9467bd"/>
<line x1="604" y1="176" x2="624" y2="176" stroke="#9467bd" stroke-width="2.2"/>
<text x="628" y="180">separate-opt (split->RL)</text>
<path d="M78.0,86.4 L150.9,90.1 L224.7,102.2 L297.6,97.4 L370.4,127.7 L443.3,341.2" fill="none" stroke="#d62728" stroke-width="2.2"/>
<circle cx="78.0" cy="86.4" r="3.3" fill="#d62728"/>
<circle cx="150.9" cy="90.1" r="3.3" fill="#d62728"/>
<circle cx="224.7" cy="102.2" r="3.3" fill="#d62728"/>
<circle cx="297.6" cy="97.4" r="3.3" fill="#d62728"/>
<circle cx="370.4" cy="127.7" r="3.3" fill="#d62728"/>
<circle cx="443.3" cy="341.2" r="3.3" fill="#d62728"/>
<line x1="604" y1="198" x2="624" y2="198" stroke="#d62728" stroke-width="2.2"/>
<text x="628" y="202">RL-joint [ours]</text>
</svg>