<svg xmlns="http://www.w3.org/2000/svg" width="760" height="520" font-family="Helvetica,Arial,sans-serif" font-size="13">
<rect width="760" height="520" fill="white"/>
<text x="334.0" y="26" text-anchor="middle" font-size="16" font-weight="bold">64-QAM  coupling-depth w sweep  (R=3/4,Z=32,L=100)</text>
<line x1="78" y1="398.5" x2="590" y2="398.5" stroke="#e0e0e0"/>
<text x="70" y="402.5" text-anchor="end">1e-5</text>
<line x1="78" y1="316.0" x2="590" y2="316.0" stroke="#e0e0e0"/>
<text x="70" y="320.0" text-anchor="end">1e-4</text>
<line x1="78" y1="233.6" x2="590" y2="233.6" stroke="#e0e0e0"/>
<text x="70" y="237.6" text-anchor="end">1e-3</text>
<line x1="78" y1="151.1" x2="590" y2="151.1" stroke="#e0e0e0"/>
<text x="70" y="155.1" text-anchor="end">1e-2</text>
<line x1="78" y1="68.7" x2="590" y2="68.7" stroke="#e0e0e0"/>
<text x="70" y="72.7" text-anchor="end">1e-1</text>
<line x1="78.0" y1="48" x2="78.0" y2="460" stroke="#eee"/>
<text x="78.0" y="480.0" text-anchor="middle">8.5</text>
<line x1="130.4" y1="48" x2="130.4" y2="460" stroke="#eee"/>
<text x="130.4" y="480.0" text-anchor="middle">9.0</text>
<line x1="182.7" y1="48" x2="182.7" y2="460" stroke="#eee"/>
<text x="182.7" y="480.0" text-anchor="middle">9.5</text>
<line x1="235.1" y1="48" x2="235.1" y2="460" stroke="#eee"/>
<text x="235.1" y="480.0" text-anchor="middle">10.0</text>
<line x1="287.4" y1="48" x2="287.4" y2="460" stroke="#eee"/>
<text x="287.4" y="480.0" text-anchor="middle">10.5</text>
<line x1="339.8" y1="48" x2="339.8" y2="460" stroke="#eee"/>
<text x="339.8" y="480.0" text-anchor="middle">11.0</text>
<line x1="392.1" y1="48" x2="392.1" y2="460" stroke="#eee"/>
<text x="392.1" y="480.0" text-anchor="middle">11.5</text>
<line x1="444.5" y1="48" x2="444.5" y2="460" stroke="#eee"/>
<text x="444.5" y="480.0" text-anchor="middle">12.0</text>
<line x1="496.8" y1="48" x2="496.8" y2="460" stroke="#eee"/>
<text x="496.8" y="480.0" text-anchor="middle">12.5</text>
<line x1="549.2" y1="48" x2="549.2" y2="460" stroke="#eee"/>
<text x="549.2" y="480.0" text-anchor="middle">13.0</text>
<rect x="78" y="48" width="512" height="412" fill="none" stroke="#333"/>
<text x="334.0" y="504" text-anchor="middle">info Eb/N0 [dB]</text>
<text x="20" y="254.0" text-anchor="middle" transform="rotate(-90 20 254.0)">info BER</text>
<path d="M78.0,62.5 L156.5,69.4 L235.1,370.3" fill="none" stroke="#1f77b4" stroke-width="2.2"/>
<circle cx="78.0" cy="62.5" r="3.3" fill="#1f77b4"/>
<circle cx="156.5" cy="69.4" r="3.3" fill="#1f77b4"/>
<circle cx="235.1" cy="370.3" r="3.3" fill="#1f77b4"/>
<line x1="604" y1="66" x2="624" y2="66" stroke="#1f77b4" stroke-width="2.2"/>
<text x="628" y="70">w=3 (scR=0.75)</text>
<path d="M140.8,65.3 L219.3,76.2 L297.9,167.8" fill="none" stroke="#2ca02c" stroke-width="2.2"/>
<circle cx="140.8" cy="65.3" r="3.3" fill="#2ca02c"/>
<circle cx="219.3" cy="76.2" r="3.3" fill="#2ca02c"/>
<circle cx="297.9" cy="167.8" r="3.3" fill="#2ca02c"/>
<line x1="604" y1="88" x2="624" y2="88" stroke="#2ca02c" stroke-width="2.2"/>
<text x="628" y="92">w=4 (scR=0.75)</text>
<path d="M202.6,69.3 L281.1,82.1 L359.7,169.1 L432.9,358.9 L506.2,426.8" fill="none" stroke="#ff7f0e" stroke-width="2.2"/>
<circle cx="202.6" cy="69.3" r="3.3" fill="#ff7f0e"/>
<circle cx="281.1" cy="82.1" r="3.3" fill="#ff7f0e"/>
<circle cx="359.7" cy="169.1" r="3.3" fill="#ff7f0e"/>
<circle cx="432.9" cy="358.9" r="3.3" fill="#ff7f0e"/>
<circle cx="506.2" cy="426.8" r="3.3" fill="#ff7f0e"/>
<line x1="604" y1="110" x2="624" y2="110" stroke="#ff7f0e" stroke-width="2.2"/>
<text x="628" y="114">w=6 (scR=0.74)</text>
<path d="M172.2,70.1 L250.8,84.3 L329.3,140.2 L402.6,355.9 L559.6,441.7" fill="none" stroke="#9467bd" stroke-width="2.2"/>
<circle cx="172.2" cy="70.1" r="3.3" fill="#9467bd"/>
<circle cx="250.8" cy="84.3" r="3.3" fill="#9467bd"/>
<circle cx="329.3" cy="140.2" r="3.3" fill="#9467bd"/>
<circle cx="402.6" cy="355.9" r="3.3" fill="#9467bd"/>
<circle cx="559.6" cy="441.7" r="3.3" fill="#9467bd"/>
<line x1="604" y1="132" x2="624" y2="132" stroke="#9467bd" stroke-width="2.2"/>
<text x="628" y="136">w=8 (scR=0.74)</text>
<path d="M140.8,66.7 L219.3,83.2 L297.9,139.1 L371.2,324.6" fill="none" stroke="#8c564b" stroke-width="2.2"/>
<circle cx="140.8" cy="66.7" r="3.3" fill="#8c564b"/>
<circle cx="219.3" cy="83.2" r="3.3" fill="#8c564b"/>
<circle cx="297.9" cy="139.1" r="3.3" fill="#8c564b"/>
<circle cx="371.2" cy="324.6" r="3.3" fill="#8c564b"/>
<line x1="604" y1="154" x2="624" y2="154" stroke="#8c564b" stroke-width="2.2"/>
<text x="628" y="158">w=12 (scR=0.73)</text>
<path d="M78.0,63.5 L156.5,70.4 L235.1,148.5" fill="none" stroke="#d62728" stroke-width="2.2"/>
<circle cx="78.0" cy="63.5" r="3.3" fill="#d62728"/>
<circle cx="156.5" cy="70.4" r="3.3" fill="#d62728"/>
<circle cx="235.1" cy="148.5" r="3.3" fill="#d62728"/>
<line x1="604" y1="176" x2="624" y2="176" stroke="#d62728" stroke-width="2.2"/>
<text x="628" y="180">w=16 (scR=0.72)</text>
</svg>