<svg xmlns="http://www.w3.org/2000/svg" width="815" height="520" font-family="DejaVu Sans, Arial, sans-serif" font-size="13">
<rect width="815" height="520" fill="white"/>
<text x="334.0" y="26" text-anchor="middle" font-size="16" font-weight="bold">Long SC-LDPC R=0.75 w=2 (BG1 Z=64, L=24)</text>
<line x1="78" y1="424.3" x2="590" y2="424.3" stroke="#e0e0e0"/>
<text x="70" y="428.3" text-anchor="end">1e-6</text>
<line x1="78" y1="349.7" x2="590" y2="349.7" stroke="#e0e0e0"/>
<text x="70" y="353.7" text-anchor="end">1e-5</text>
<line x1="78" y1="275.1" x2="590" y2="275.1" stroke="#e0e0e0"/>
<text x="70" y="279.1" text-anchor="end">1e-4</text>
<line x1="78" y1="200.5" x2="590" y2="200.5" stroke="#e0e0e0"/>
<text x="70" y="204.5" text-anchor="end">1e-3</text>
<line x1="78" y1="125.9" x2="590" y2="125.9" stroke="#e0e0e0"/>
<text x="70" y="129.9" text-anchor="end">1e-2</text>
<line x1="78" y1="51.4" x2="590" y2="51.4" stroke="#e0e0e0"/>
<text x="70" y="55.4" text-anchor="end">1e-1</text>
<line x1="78.0" y1="48" x2="78.0" y2="460" stroke="#eee"/>
<text x="78.0" y="480.0" text-anchor="middle">2.4</text>
<line x1="291.3" y1="48" x2="291.3" y2="460" stroke="#eee"/>
<text x="291.3" y="480.0" text-anchor="middle">2.9</text>
<line x1="504.7" y1="48" x2="504.7" y2="460" stroke="#eee"/>
<text x="504.7" y="480.0" text-anchor="middle">3.4</text>
<rect x="78" y="48" width="512" height="412" fill="none" stroke="#333"/>
<text x="334.0" y="504" text-anchor="middle">Eb/N0 [dB]</text>
<text x="20" y="254.0" text-anchor="middle" transform="rotate(-90 20 254.0)">info BER</text>
<path d="M78.0,73.6 L334.0,273.1 L590.0,398.5" fill="none" stroke="#d62728" stroke-width="2.2"/>
<circle cx="78.0" cy="73.6" r="3.3" fill="#d62728"/>
<circle cx="334.0" cy="273.1" r="3.3" fill="#d62728"/>
<circle cx="590.0" cy="398.5" r="3.3" fill="#d62728"/>
<line x1="604" y1="66" x2="624" y2="66" stroke="#d62728" stroke-width="2.2"/>
<text x="628" y="70">RL feature [ours]</text>
<path d="M78.0,76.1 L334.0,323.1" fill="none" stroke="#9467bd" stroke-width="2.2"/>
<circle cx="78.0" cy="76.1" r="3.3" fill="#9467bd"/>
<circle cx="334.0" cy="323.1" r="3.3" fill="#9467bd"/>
<line x1="604" y1="88" x2="624" y2="88" stroke="#9467bd" stroke-width="2.2"/>
<text x="628" y="92">CEM</text>
<path d="M78.0,69.7 L334.0,268.4 L590.0,443.5" fill="none" stroke="#1f77b4" stroke-width="2.2"/>
<circle cx="78.0" cy="69.7" r="3.3" fill="#1f77b4"/>
<circle cx="334.0" cy="268.4" r="3.3" fill="#1f77b4"/>
<circle cx="590.0" cy="443.5" r="3.3" fill="#1f77b4"/>
<line x1="604" y1="110" x2="624" y2="110" stroke="#1f77b4" stroke-width="2.2"/>
<text x="628" y="114">random search</text>
<path d="M78.0,65.8 L334.0,236.7" fill="none" stroke="#8c564b" stroke-width="2.2"/>
<circle cx="78.0" cy="65.8" r="3.3" fill="#8c564b"/>
<circle cx="334.0" cy="236.7" r="3.3" fill="#8c564b"/>
<line x1="604" y1="132" x2="624" y2="132" stroke="#8c564b" stroke-width="2.2"/>
<text x="628" y="136">round-robin</text>
<path d="M78.0,61.1 L334.0,176.5 L590.0,411.7" fill="none" stroke="#7f7f7f" stroke-width="2.2"/>
<circle cx="78.0" cy="61.1" r="3.3" fill="#7f7f7f"/>
<circle cx="334.0" cy="176.5" r="3.3" fill="#7f7f7f"/>
<circle cx="590.0" cy="411.7" r="3.3" fill="#7f7f7f"/>
<line x1="604" y1="154" x2="624" y2="154" stroke="#7f7f7f" stroke-width="2.2"/>
<text x="628" y="158">random default (seed0)</text>
</svg>