<svg xmlns="http://www.w3.org/2000/svg" width="846" height="520" font-family="DejaVu Sans, Arial, sans-serif" font-size="13">
<rect width="846" height="520" fill="white"/>
<text x="334.0" y="26" text-anchor="middle" font-size="16" font-weight="bold">Zero-shot transfer of the learned construction policy</text>
<line x1="78" y1="361.4" x2="590" y2="361.4" stroke="#e0e0e0"/>
<text x="70" y="365.4" text-anchor="end">1e-1</text>
<line x1="78" y1="90.8" x2="590" y2="90.8" stroke="#e0e0e0"/>
<text x="70" y="94.8" text-anchor="end">1e0</text>
<line x1="78.0" y1="48" x2="78.0" y2="460" stroke="#eee"/>
<text x="78.0" y="480.0" text-anchor="middle">1.0</text>
<line x1="334.0" y1="48" x2="334.0" y2="460" stroke="#eee"/>
<text x="334.0" y="480.0" text-anchor="middle">1.5</text>
<line x1="590.0" y1="48" x2="590.0" y2="460" stroke="#eee"/>
<text x="590.0" y="480.0" text-anchor="middle">2.0</text>
<rect x="78" y="48" width="512" height="412" fill="none" stroke="#333"/>
<text x="334.0" y="504" text-anchor="middle">transfer target (1,2)</text>
<text x="20" y="254.0" text-anchor="middle" transform="rotate(-90 20 254.0)">FER @ train SNR</text>
<path d="M78.0,336.1 L590.0,118.8" fill="none" stroke="#d62728" stroke-width="2.2"/>
<circle cx="78.0" cy="336.1" r="3.3" fill="#d62728"/>
<circle cx="590.0" cy="118.8" r="3.3" fill="#d62728"/>
<line x1="604" y1="66" x2="624" y2="66" stroke="#d62728" stroke-width="2.2"/>
<text x="628" y="70">learned policy (zero-shot)</text>
<path d="M78.0,316.9 L590.0,109.7" fill="none" stroke="#1f77b4" stroke-width="2.2"/>
<circle cx="78.0" cy="316.9" r="3.3" fill="#1f77b4"/>
<circle cx="590.0" cy="109.7" r="3.3" fill="#1f77b4"/>
<line x1="604" y1="88" x2="624" y2="88" stroke="#1f77b4" stroke-width="2.2"/>
<text x="628" y="92">random (median)</text>
<path d="M78.0,400.0 L590.0,125.6" fill="none" stroke="#7f7f7f" stroke-width="2.2"/>
<circle cx="78.0" cy="400.0" r="3.3" fill="#7f7f7f"/>
<circle cx="590.0" cy="125.6" r="3.3" fill="#7f7f7f"/>
<line x1="604" y1="110" x2="624" y2="110" stroke="#7f7f7f" stroke-width="2.2"/>
<text x="628" y="114">random (best of 12)</text>
<path d="M78.0,258.5 L590.0,95.6" fill="none" stroke="#8c564b" stroke-width="2.2"/>
<circle cx="78.0" cy="258.5" r="3.3" fill="#8c564b"/>
<circle cx="590.0" cy="95.6" r="3.3" fill="#8c564b"/>
<line x1="604" y1="132" x2="624" y2="132" stroke="#8c564b" stroke-width="2.2"/>
<text x="628" y="136">round-robin</text>
</svg>