<svg xmlns="http://www.w3.org/2000/svg" width="785" height="520" font-family="DejaVu Sans, Arial, sans-serif" font-size="13">
<rect width="785" height="520" fill="white"/>
<text x="334.0" y="26" text-anchor="middle" font-size="16" font-weight="bold">RL minimises coupled-graph 4-cycles across w (BG1 Z=16, R~2/3)</text>
<line x1="78" y1="401.5" x2="590" y2="401.5" stroke="#e0e0e0"/>
<text x="70" y="405.5" text-anchor="end">1e0</text>
<line x1="78" y1="289.6" x2="590" y2="289.6" stroke="#e0e0e0"/>
<text x="70" y="293.6" text-anchor="end">1e1</text>
<line x1="78" y1="177.6" x2="590" y2="177.6" stroke="#e0e0e0"/>
<text x="70" y="181.6" text-anchor="end">1e2</text>
<line x1="78" y1="65.7" x2="590" y2="65.7" stroke="#e0e0e0"/>
<text x="70" y="69.7" text-anchor="end">1e3</text>
<line x1="78.0" y1="48" x2="78.0" y2="460" stroke="#eee"/>
<text x="78.0" y="480.0" text-anchor="middle">3.0</text>
<line x1="144.4" y1="48" x2="144.4" y2="460" stroke="#eee"/>
<text x="144.4" y="480.0" text-anchor="middle">6.5</text>
<line x1="210.7" y1="48" x2="210.7" y2="460" stroke="#eee"/>
<text x="210.7" y="480.0" text-anchor="middle">10.0</text>
<line x1="277.1" y1="48" x2="277.1" y2="460" stroke="#eee"/>
<text x="277.1" y="480.0" text-anchor="middle">13.5</text>
<line x1="343.5" y1="48" x2="343.5" y2="460" stroke="#eee"/>
<text x="343.5" y="480.0" text-anchor="middle">17.0</text>
<line x1="409.9" y1="48" x2="409.9" y2="460" stroke="#eee"/>
<text x="409.9" y="480.0" text-anchor="middle">20.5</text>
<line x1="476.2" y1="48" x2="476.2" y2="460" stroke="#eee"/>
<text x="476.2" y="480.0" text-anchor="middle">24.0</text>
<line x1="542.6" y1="48" x2="542.6" y2="460" stroke="#eee"/>
<text x="542.6" y="480.0" text-anchor="middle">27.5</text>
<rect x="78" y="48" width="512" height="412" fill="none" stroke="#333"/>
<text x="334.0" y="504" text-anchor="middle">coupling memory w</text>
<text x="20" y="254.0" text-anchor="middle" transform="rotate(-90 20 254.0)">4-cycles @ L=60 (lower=better)</text>
<path d="M78.0,435.2 L115.9,435.2 L172.8,435.2 L248.7,435.2 L324.5,435.2 L400.4,435.2 L590.0,435.2" fill="none" stroke="#d62728" stroke-width="2.2"/>
<circle cx="78.0" cy="435.2" r="3.3" fill="#d62728"/>
<circle cx="115.9" cy="435.2" r="3.3" fill="#d62728"/>
<circle cx="172.8" cy="435.2" r="3.3" fill="#d62728"/>
<circle cx="248.7" cy="435.2" r="3.3" fill="#d62728"/>
<circle cx="324.5" cy="435.2" r="3.3" fill="#d62728"/>
<circle cx="400.4" cy="435.2" r="3.3" fill="#d62728"/>
<circle cx="590.0" cy="435.2" r="3.3" fill="#d62728"/>
<line x1="604" y1="66" x2="624" y2="66" stroke="#d62728" stroke-width="2.2"/>
<text x="628" y="70">RL feature [ours]</text>
<path d="M78.0,435.2 L115.9,435.2 L172.8,435.2 L248.7,435.2 L324.5,435.2 L400.4,435.2 L590.0,435.2" fill="none" stroke="#ff7f0e" stroke-width="2.2"/>
<circle cx="78.0" cy="435.2" r="3.3" fill="#ff7f0e"/>
<circle cx="115.9" cy="435.2" r="3.3" fill="#ff7f0e"/>
<circle cx="172.8" cy="435.2" r="3.3" fill="#ff7f0e"/>
<circle cx="248.7" cy="435.2" r="3.3" fill="#ff7f0e"/>
<circle cx="324.5" cy="435.2" r="3.3" fill="#ff7f0e"/>
<circle cx="400.4" cy="435.2" r="3.3" fill="#ff7f0e"/>
<circle cx="590.0" cy="435.2" r="3.3" fill="#ff7f0e"/>
<line x1="604" y1="88" x2="624" y2="88" stroke="#ff7f0e" stroke-width="2.2"/>
<text x="628" y="92">RL per-edge [ours]</text>
<path d="M78.0,435.2 L115.9,435.2 L172.8,435.2 L248.7,435.2 L324.5,435.2 L400.4,435.2 L590.0,435.2" fill="none" stroke="#1f77b4" stroke-width="2.2"/>
<circle cx="78.0" cy="435.2" r="3.3" fill="#1f77b4"/>
<circle cx="115.9" cy="435.2" r="3.3" fill="#1f77b4"/>
<circle cx="172.8" cy="435.2" r="3.3" fill="#1f77b4"/>
<circle cx="248.7" cy="435.2" r="3.3" fill="#1f77b4"/>
<circle cx="324.5" cy="435.2" r="3.3" fill="#1f77b4"/>
<circle cx="400.4" cy="435.2" r="3.3" fill="#1f77b4"/>
<circle cx="590.0" cy="435.2" r="3.3" fill="#1f77b4"/>
<line x1="604" y1="110" x2="624" y2="110" stroke="#1f77b4" stroke-width="2.2"/>
<text x="628" y="114">random search</text>
<path d="M78.0,435.2 L115.9,67.7 L172.8,70.2 L248.7,69.4 L324.5,69.4 L400.4,435.2 L590.0,435.2" fill="none" stroke="#7f7f7f" stroke-width="2.2"/>
<circle cx="78.0" cy="435.2" r="3.3" fill="#7f7f7f"/>
<circle cx="115.9" cy="67.7" r="3.3" fill="#7f7f7f"/>
<circle cx="172.8" cy="70.2" r="3.3" fill="#7f7f7f"/>
<circle cx="248.7" cy="69.4" r="3.3" fill="#7f7f7f"/>
<circle cx="324.5" cy="69.4" r="3.3" fill="#7f7f7f"/>
<circle cx="400.4" cy="435.2" r="3.3" fill="#7f7f7f"/>
<circle cx="590.0" cy="435.2" r="3.3" fill="#7f7f7f"/>
<line x1="604" y1="132" x2="624" y2="132" stroke="#7f7f7f" stroke-width="2.2"/>
<text x="628" y="136">default seed0</text>
</svg>